<svg width="217" height="181" viewBox="0 0 217 181" fill="none" xmlns="http://www.w3.org/2000/svg">
<path d="M147.691 10.656L2 95.3804L46.5519 171.991L93.7138 144.565L107.74 147.255L215.281 84.7165L175.291 15.9496L147.691 10.656Z" fill="url(#paint0_radial_811_11)" stroke="#00F666" stroke-opacity="0.5" stroke-width="2"/>
<path fill-rule="evenodd" clip-rule="evenodd" d="M149.879 51.6873C143.055 43.4507 129.934 41.8555 122.703 49.2282C115.491 56.5811 115.599 72.3866 130.286 85.6284C142.326 96.4841 155.075 96.2467 161.538 93.747C163.351 92.9608 166.84 89.7387 165.534 83.1486C164.703 78.9556 162.52 73.1758 159.67 67.3891C156.822 61.6049 153.324 55.845 149.879 51.6873ZM122.156 48.6916C129.766 40.9321 143.414 42.6827 150.47 51.1984C153.965 55.4169 157.493 61.2329 160.358 67.0505C163.221 72.8655 165.436 78.7133 166.285 82.9996C167.666 89.9689 163.962 93.5361 161.835 94.4535L161.829 94.4564L161.822 94.459C155.097 97.0634 142.037 97.2549 129.773 86.1975C114.896 72.7849 114.526 56.471 122.156 48.6916ZM145.423 77.5977C145.497 79.7393 141.814 81.6041 137.197 81.7629C132.58 81.9216 128.777 80.3142 128.704 78.1726C128.63 76.031 132.313 74.1662 136.93 74.0075C141.547 73.8487 145.349 75.4561 145.423 77.5977ZM150.373 66.8031C149.045 69.7877 149.202 72.7563 150.724 73.4337C152.247 74.1111 154.557 72.2408 155.886 69.2563C157.214 66.2718 157.056 63.3032 155.534 62.6258C154.012 61.9483 151.701 63.8186 150.373 66.8031Z" fill="url(#paint1_linear_811_11)"/>
<defs>
<radialGradient id="paint0_radial_811_11" cx="0" cy="0" r="1" gradientUnits="userSpaceOnUse" gradientTransform="translate(137.928 140.41) rotate(-120.179) scale(62.532 121.773)">
<stop stop-color="#00F666" stop-opacity="0.45"/>
<stop offset="1" stop-color="#00F666" stop-opacity="0"/>
</radialGradient>
<linearGradient id="paint1_linear_811_11" x1="190.573" y1="162.143" x2="113.623" y2="24.1546" gradientUnits="userSpaceOnUse">
<stop stop-color="#00F666"/>
<stop offset="1" stop-color="#00F666" stop-opacity="0"/>
</linearGradient>
</defs>
</svg>
