<svg width="77" height="87" viewBox="0 0 77 87" fill="none" xmlns="http://www.w3.org/2000/svg">
<path d="M40.826 79.2311L74.9482 19.8413L43.7184 1.8983L32.6727 21.1234L27.1875 23.0211L2.00036 66.8593L30.0326 82.9651L40.826 79.2311Z" fill="url(#paint0_radial_811_18)" stroke="#00F666" stroke-opacity="0.5" stroke-width="2"/>
<path fill-rule="evenodd" clip-rule="evenodd" d="M31.7325 65.2253C35.8064 66.7418 40.7509 64.642 41.802 60.5788C42.8502 56.5265 39.6062 50.9822 31.748 49.2979C25.3057 47.9172 20.864 50.5868 19.095 52.7781C18.6161 53.4227 18.0412 55.265 19.8378 57.3209C20.981 58.629 22.9221 60.2217 25.0994 61.6817C27.2756 63.141 29.676 64.4598 31.7325 65.2253ZM42.1035 60.6568C40.9973 64.9332 35.8358 67.0851 31.6238 65.5172C29.5373 64.7405 27.1148 63.4081 24.9259 61.9404C22.7381 60.4733 20.7719 58.8631 19.6033 57.5259C17.7033 55.3517 18.2843 53.344 18.8471 52.5896L18.8489 52.5872L18.8507 52.5849C20.6906 50.3037 25.2513 47.587 31.8132 48.9934C39.7729 50.6994 43.2126 56.3694 42.1035 60.6568ZM28.0462 55.1964C27.5858 54.4572 28.5046 53.0534 30.0984 52.0609C31.6921 51.0685 33.3573 50.8633 33.8176 51.6026C34.2779 52.3418 33.3591 53.7456 31.7654 54.7381C30.1717 55.7305 28.5065 55.9357 28.0462 55.1964ZM28.4923 60.002C28.3547 58.6815 27.6972 57.668 27.0237 57.7382C26.3502 57.8084 25.9158 58.9357 26.0535 60.2562C26.1911 61.5767 26.8486 62.5902 27.5221 62.52C28.1956 62.4498 28.63 61.3225 28.4923 60.002Z" fill="url(#paint1_linear_811_18)"/>
<defs>
<radialGradient id="paint0_radial_811_18" cx="0" cy="0" r="1" gradientUnits="userSpaceOnUse" gradientTransform="translate(17.9446 31.555) rotate(29.8794) scale(25.4136 49.4896)">
<stop stop-color="#00F666" stop-opacity="0.45"/>
<stop offset="1" stop-color="#00F666" stop-opacity="0"/>
</radialGradient>
<linearGradient id="paint1_linear_811_18" x1="-5.00361" y1="34.5806" x2="50.0856" y2="67.5672" gradientUnits="userSpaceOnUse">
<stop stop-color="#00F666"/>
<stop offset="1" stop-color="#00F666" stop-opacity="0"/>
</linearGradient>
</defs>
</svg>
